<svg width="195" height="107" viewBox="0 0 195 107" fill="none" xmlns="http://www.w3.org/2000/svg">
<path opacity="0.3" d="M60.89 12.56C60.83 12.03 60.91 11.47 60.95 10.93C61.19 7.61001 60.04 6.22 58.73 6.14C53.29 5.83 50.52 2.09 50.52 8.64C50.52 51.17 70.74 93.38 91.67 103.02C95.69 104.87 98.32 105.75 101.62 104.87C103.6 104.34 107.83 106.44 106.65 103.37C106.62 103.28 99.63 98.65 98.02 97.36C74.73 78.79 63.94 39.01 60.89 12.56Z" fill="#A4BEC4"/>
<path opacity="0.3" d="M42.49 16.18C42.46 15.66 42.54 15.15 42.64 14.64C43.26 11.5 40.07 8.91001 36.91 10.1C24.58 14.73 17.28 14.48 17.28 20.69C17.28 61.02 42.18 104.8 97.11 104.8C106.3 104.8 134.83 98.77 143.28 97.06C148.28 96.05 147.45 89.18 142.34 89.2C142.21 89.2 142.09 89.2 141.96 89.2C87.03 89.19 45.92 67.06 42.49 16.18Z" fill="#A4BEC4"/>
<path d="M194.5 31.78C194.5 11.14 144.39 0 97.25 0C50.11 0 0 11.14 0 31.78C0 68.24 32.16 98.86 75.19 106.8H119.32C162.34 98.86 194.5 68.24 194.5 31.78ZM97.25 100.8C48.04 100.8 8 69.84 8 31.78C8 21.85 41.96 8 97.25 8C152.54 8 186.5 21.85 186.5 31.78C186.5 69.84 146.46 100.8 97.25 100.8Z" fill="#A4BEC4"/>
</svg>
