<svg width="195" height="107" viewBox="0 0 195 107" fill="none" xmlns="http://www.w3.org/2000/svg">
<path opacity="0.3" d="M43.36 55.3499C43.27 55.0399 43.39 54.7199 43.44 54.3999C43.78 52.4699 42.15 51.6599 40.28 51.6099C32.54 51.4299 20.55 46.8599 21.9 50.4299C34.1 82.5399 57.09 103.6 87.31 105.91C94.02 106.42 94.02 106.42 98.71 105.91C101.52 105.6 103.3 106.67 101.61 104.88C101.56 104.83 97.74 103.68 97.67 103.66C62.2 94.2799 47.7 70.7699 43.36 55.3499Z" fill="#B4CFD3"/>
<path d="M97.25 63.56C50.1 63.56 0 52.42 0 31.78C0 11.14 50.11 0 97.25 0C144.39 0 194.5 11.14 194.5 31.78C194.5 52.42 144.39 63.56 97.25 63.56ZM97.25 8C41.95 8 8 21.85 8 31.78C8 41.71 41.96 55.56 97.25 55.56C152.54 55.56 186.5 41.71 186.5 31.78C186.5 21.85 152.54 8 97.25 8Z" fill="#B4CFD3"/>
<path opacity="0.3" d="M60.89 11.56C60.83 11.03 60.91 10.47 60.95 9.93001C61.19 6.61001 60.04 5.22 58.73 5.14C53.29 4.83 50.52 1.09 50.52 7.64C50.52 50.17 70.74 92.38 91.67 102.02C95.69 103.87 98.32 104.75 101.62 103.87C103.6 103.34 107.83 105.44 106.65 102.37C106.62 102.28 99.63 97.65 98.02 96.36C74.73 77.79 63.94 38.01 60.89 11.56Z" fill="#A4BEC4"/>
<path opacity="0.3" d="M42.49 15.18C42.46 14.66 42.54 14.15 42.64 13.64C43.26 10.5 40.07 7.91001 36.91 9.10001C24.58 13.73 17.28 13.48 17.28 19.69C17.28 60.02 42.18 103.8 97.11 103.8C106.3 103.8 134.83 97.77 143.28 96.06C148.28 95.05 147.45 88.18 142.34 88.2C142.21 88.2 142.09 88.2 141.96 88.2C87.03 88.19 45.92 66.06 42.49 15.18Z" fill="#A4BEC4"/>
<path d="M159.07 65.3199C158.82 65.3199 158.56 65.2599 158.32 65.1199C157.6 64.7099 157.36 63.7899 157.77 63.0699C159.07 60.8099 159.08 58.7199 157.82 56.6799C152.75 48.5099 129.2 43.0799 105.32 44.5799C104.5 44.6299 103.78 43.9999 103.73 43.1799C103.68 42.3599 104.31 41.6399 105.13 41.5899C130.84 39.9799 154.59 45.7899 160.37 55.0999C162.22 58.0799 162.22 61.3599 160.37 64.5699C160.09 65.0499 159.59 65.3199 159.07 65.3199Z" fill="white"/>
<path opacity="0.4" d="M150.48 65.32C150.28 65.32 150.07 65.2799 149.87 65.1899C149.11 64.8499 148.77 63.9699 149.11 63.2099C149.88 61.4699 149.78 59.92 148.81 58.48C145.17 53.09 129.99 49.5899 112.73 50.1599C111.88 50.1699 111.21 49.54 111.18 48.71C111.15 47.88 111.8 47.1899 112.63 47.1599C128.3 46.6299 146.32 49.4199 151.3 56.7999C152.85 59.0999 153.05 61.7399 151.86 64.4199C151.61 64.9899 151.06 65.32 150.48 65.32Z" fill="white"/>
<path d="M23.8701 66.3299C38.5901 85.7599 66.6701 98.8999 98.9001 98.8999C131.13 98.8999 159.21 85.7599 173.93 66.3299C162.72 74.8399 133.36 80.8999 98.9001 80.8999C64.4401 80.9099 35.0801 74.8399 23.8701 66.3299Z" fill="white" fill-opacity="0.4"/>
</svg>
