<svg width="161" height="63" viewBox="0 0 161 63" fill="none" xmlns="http://www.w3.org/2000/svg">
<path d="M160.78 22.8299C160.81 22.7799 160.84 22.7299 160.87 22.6799H160.8C160.8 10.3999 125.03 0.449951 80.9101 0.449951C36.7901 0.449951 1.02008 10.3999 1.02008 22.6799H0.950073C0.980073 22.7299 1.0101 22.7799 1.0401 22.8299C1.1001 25.4599 2.80008 27.9899 5.89008 30.3299C20.6101 49.7599 48.6901 62.8999 80.9201 62.8999C113.15 62.8999 141.23 49.7599 155.95 30.3299C159.01 27.9899 160.71 25.4699 160.78 22.8299Z" fill="#F90023"/>
<g opacity="0.4">
<path d="M141.07 29.3199C140.82 29.3199 140.56 29.2599 140.32 29.1199C139.6 28.7099 139.36 27.7899 139.77 27.0699C141.07 24.8099 141.08 22.7199 139.82 20.6799C134.75 12.5099 111.2 7.07994 87.3201 8.57994C86.5001 8.62994 85.7801 7.99994 85.7301 7.17994C85.6801 6.35994 86.3101 5.63995 87.1301 5.58995C112.84 3.97995 136.59 9.78994 142.37 19.0999C144.22 22.0799 144.22 25.3599 142.37 28.5699C142.09 29.0499 141.59 29.3199 141.07 29.3199Z" fill="white"/>
</g>
<path opacity="0.4" d="M132.48 29.32C132.28 29.32 132.07 29.2799 131.87 29.1899C131.11 28.8499 130.77 27.9699 131.11 27.2099C131.88 25.4699 131.78 23.92 130.81 22.48C127.17 17.09 111.99 13.5899 94.7301 14.1599C93.8801 14.1699 93.2101 13.54 93.1801 12.71C93.1501 11.88 93.8001 11.1899 94.6301 11.1599C110.3 10.6299 128.32 13.4199 133.3 20.7999C134.85 23.0999 135.05 25.7399 133.86 28.4199C133.61 28.9899 133.06 29.32 132.48 29.32Z" fill="white"/>
<path d="M5.87009 30.3299C20.5901 49.7599 48.6701 62.8999 80.9001 62.8999C113.13 62.8999 141.21 49.7599 155.93 30.3299C144.72 38.8399 115.36 44.8999 80.9001 44.8999C46.4401 44.9099 17.0801 38.8399 5.87009 30.3299Z" fill="white" fill-opacity="0.4"/>
</svg>
